<svg width="30" height="56" viewBox="0 0 30 56" fill="none" xmlns="http://www.w3.org/2000/svg">
<path d="M29.1296 17.3598C30.2901 16.1817 30.2901 14.2716 29.1296 13.0935L17.1013 0.883583C15.9407 -0.294527 14.059 -0.294528 12.8984 0.883582C11.7379 2.06169 11.7379 3.97179 12.8984 5.1499L24.9267 17.3598C26.0873 18.5379 27.969 18.5379 29.1296 17.3598Z" fill="#C4C4C4"/>
<path d="M0.870439 17.3598C-0.290146 16.1817 -0.290146 14.2716 0.870439 13.0935L12.8984 0.883582C14.059 -0.294528 15.9407 -0.294527 17.1013 0.883583C18.2619 2.06169 18.2621 3.97179 17.1016 5.1499L5.07329 17.3598C3.91271 18.5379 2.03102 18.5379 0.870439 17.3598Z" fill="#C4C4C4"/>
<path d="M15.0003 0.0533733C13.359 0.0533732 12.0284 1.40402 12.0284 3.07011L12.0284 52.9833C12.0284 54.6494 13.359 56 15.0003 56C16.6416 56 17.9722 54.6494 17.9722 52.9833L17.9722 3.07011C17.9722 1.40402 16.6416 0.0533733 15.0003 0.0533733Z" fill="#C4C4C4"/>
</svg>
